# xmcd
# 
# Track frame offsets:
#     150
#     19082
#     34215
#     49835
#     74710
#     97695
#     115770
#     146722
#     165507
#     189957
#     207215
#     235532
#     249040
#     269147
# 
# Disc length: 4004
# 
# Revision: 3
# Processed by: cddbd v1.5.2PL0 Copyright (c) Steve Scherf et al.
# Submitted via: fre:ac v1.0.17
# 
DISCID=bb0fa20e
DTITLE=Hobo - Kenyerem java
DYEAR=1995
DGENRE=Blues
TTITLE0=Dobókocka
TTITLE1=Sztárfaló
TTITLE2=Az idegen földön
TTITLE3=Másik Magyarország
TTITLE4=Az idő
TTITLE5=Ballada a senki fiáról
TTITLE6=Betegség blues
TTITLE7=Feketebárány blues
TTITLE8=Meghívás a bluesra
TTITLE9=A fattyú
TTITLE10=Matilda
TTITLE11=Gazember
TTITLE12=Halj meg és nagy leszel!
TTITLE13=Fogadj el engem!
EXTD=Hobo 50. születésnapi albuma\nThe album of Hobo for his 50th birthday
EXTT0=
EXTT1=
EXTT2=
EXTT3=
EXTT4=
EXTT5=
EXTT6=
EXTT7=
EXTT8=
EXTT9=
EXTT10=
EXTT11=
EXTT12=
EXTT13=
PLAYORDER=
